<svg xmlns="http://www.w3.org/2000/svg" width="15.539" height="12.796" viewBox="0 0 15.539 12.796">
  <g id="Group_108" data-name="Group 108" transform="translate(-86.236 -160.548)">
    <g id="Group_71" data-name="Group 71" transform="translate(87.102 160.548)">
      <g id="Path_51" data-name="Path 51" transform="translate(0.434)" fill="#b1b1b1">
        <path d="M 6.297520637512207 12.0950403213501 C 3.100760698318481 12.0950403213501 0.5000006556510925 9.494280815124512 0.5000006556510925 6.297520637512207 C 0.5000006556510925 3.100760698318481 3.100760698318481 0.5000006556510925 6.297520637512207 0.5000006556510925 C 9.494280815124512 0.5000006556510925 12.0950403213501 3.100760698318481 12.0950403213501 6.297520637512207 C 12.0950403213501 9.494280815124512 9.494280815124512 12.0950403213501 6.297520637512207 12.0950403213501 Z" stroke="none"/>
        <path d="M 6.297520637512207 1.000000953674316 C 3.376461029052734 1.000000953674316 1.000000953674316 3.376461029052734 1.000000953674316 6.297520637512207 C 1.000000953674316 9.21858024597168 3.376461029052734 11.5950403213501 6.297520637512207 11.5950403213501 C 9.21858024597168 11.5950403213501 11.5950403213501 9.21858024597168 11.5950403213501 6.297520637512207 C 11.5950403213501 3.376461029052734 9.21858024597168 1.000000953674316 6.297520637512207 1.000000953674316 M 6.297520637512207 9.5367431640625e-07 C 9.775540351867676 9.5367431640625e-07 12.5950403213501 2.819500923156738 12.5950403213501 6.297520637512207 C 12.5950403213501 9.775540351867676 9.775540351867676 12.5950403213501 6.297520637512207 12.5950403213501 C 2.819500923156738 12.5950403213501 9.5367431640625e-07 9.775540351867676 9.5367431640625e-07 6.297520637512207 C 9.5367431640625e-07 2.819500923156738 2.819500923156738 9.5367431640625e-07 6.297520637512207 9.5367431640625e-07 Z" stroke="none" fill="#fff"/>
      </g>
      <path id="Path_49" data-name="Path 49" d="M0,0,1.807,1.807,3.613,0" transform="translate(4.006 8.925) rotate(146)" fill="none" stroke="#b1b1b1" stroke-linecap="round" stroke-linejoin="round" stroke-width="1"/>
      <path id="Path_50" data-name="Path 50" d="M0,0,1.807,1.807,3.613,0" transform="translate(9.781 4.131) rotate(-31)" fill="none" stroke="#b1b1b1" stroke-linecap="round" stroke-linejoin="round" stroke-width="1"/>
      <path id="Path_47" data-name="Path 47" d="M0,0,1.807,1.807,3.613,0" transform="translate(4.678 9.793) rotate(146)" fill="none" stroke="#fff" stroke-linecap="round" stroke-linejoin="round" stroke-width="1"/>
      <path id="Path_48" data-name="Path 48" d="M0,0,1.807,1.807,3.613,0" transform="translate(9.782 3.262) rotate(-31)" fill="none" stroke="#fff" stroke-linecap="round" stroke-linejoin="round" stroke-width="1"/>
    </g>
    <text id="_" data-name="$" transform="translate(91.506 162.345)" fill="#fff" font-size="8" font-family="Arial-BoldMT, Arial" font-weight="700"><tspan x="0" y="7">$</tspan></text>
  </g>
</svg>
