<svg xmlns="http://www.w3.org/2000/svg" width="13.959" height="14.61" viewBox="0 0 13.959 14.61">
  <g id="Group_12" data-name="Group 12" transform="translate(0.5 0.5)">
    <path id="Path_14" data-name="Path 14" d="M1506.146,593.548l1.082-.448.261-2.276h2.276l.261,2.276,1.082.448" transform="translate(-1502.239 -590.824)" fill="none" stroke="#fff" stroke-width="1"/>
    <path id="Path_17" data-name="Path 17" d="M7.355,2.724,6.273,2.276,6.012,0H3.735L3.474,2.276l-1.082.448L.821,1.893,0,3.311,1.231,4.319" transform="translate(11.445 13.61) rotate(180)" fill="none" stroke="#fff" stroke-width="1"/>
    <path id="Path_15" data-name="Path 15" d="M0,2.724l1.082-.448L1.343,0H3.62l.261,2.276,1.082.448" transform="matrix(0.602, 0.799, -0.799, 0.602, 9.889, 0.514)" fill="none" stroke="#fff" stroke-width="1"/>
    <path id="Path_18" data-name="Path 18" d="M0,2.724l1.082-.448L1.343,0H3.62l.261,2.276,1.082.448" transform="matrix(-0.602, -0.799, 0.799, -0.602, 3.07, 13.096)" fill="none" stroke="#fff" stroke-width="1"/>
    <path id="Path_16" data-name="Path 16" d="M0,2.724l1.082-.448L1.343,0H3.62l.261,2.276,1.082.448" transform="translate(12.959 4.741) rotate(90)" fill="none" stroke="#fff" stroke-width="1"/>
    <path id="Path_19" data-name="Path 19" d="M0,2.724l1.082-.448L1.343,0H3.62l.261,2.276,1.082.448L6.481,1.369,7.713,2.451,6.22,4.168" transform="translate(0 8.87) rotate(-90)" fill="none" stroke="#fff" stroke-width="1"/>
    <g id="Ellipse_7" data-name="Ellipse 7" transform="translate(4.473 4.741)" fill="#fff" stroke="#fff" stroke-width="1">
      <ellipse cx="1.915" cy="2.089" rx="1.915" ry="2.089" stroke="none"/>
      <ellipse cx="1.915" cy="2.089" rx="1.415" ry="1.589" fill="none"/>
    </g>
  </g>
</svg>
